<svg preserveAspectRatio="none" width="100%" height="100%" overflow="visible" style="display: block;" viewBox="0 0 35.95 37" fill="none" xmlns="http://www.w3.org/2000/svg">
<g id="Overlay">
<rect width="35.95" height="37" rx="2" fill="var(--fill-0, #C68642)" fill-opacity="0.2"/>
<path id="Icon" d="M24.85 28.975C24.7167 28.975 24.5917 28.9542 24.475 28.9125C24.3583 28.8708 24.25 28.8 24.15 28.7L19.05 23.6C18.95 23.5 18.8792 23.3917 18.8375 23.275C18.7958 23.1583 18.775 23.0333 18.775 22.9C18.775 22.7667 18.7958 22.6417 18.8375 22.525C18.8792 22.4083 18.95 22.3 19.05 22.2L21.175 20.075C21.275 19.975 21.3833 19.9042 21.5 19.8625C21.6167 19.8208 21.7417 19.8 21.875 19.8C22.0083 19.8 22.1333 19.8208 22.25 19.8625C22.3667 19.9042 22.475 19.975 22.575 20.075L27.675 25.175C27.775 25.275 27.8458 25.3833 27.8875 25.5C27.9292 25.6167 27.95 25.7417 27.95 25.875C27.95 26.0083 27.9292 26.1333 27.8875 26.25C27.8458 26.3667 27.775 26.475 27.675 26.575L25.55 28.7C25.45 28.8 25.3417 28.8708 25.225 28.9125C25.1083 28.9542 24.9833 28.975 24.85 28.975V28.975M24.85 26.6L25.575 25.875L21.9 22.2L21.175 22.925L24.85 26.6V26.6M11.125 29C10.9917 29 10.8625 28.975 10.7375 28.925C10.6125 28.875 10.5 28.8 10.4 28.7L8.3 26.6C8.2 26.5 8.125 26.3875 8.075 26.2625C8.025 26.1375 8 26.0083 8 25.875C8 25.7417 8.025 25.6167 8.075 25.5C8.125 25.3833 8.2 25.275 8.3 25.175L13.6 19.875H15.725L16.575 19.025L12.45 14.9H11.025L8 11.875L10.825 9.05L13.85 12.075V13.5L17.975 17.625L20.875 14.725L19.8 13.65L21.2 12.25H18.375L17.675 11.55L21.225 8L21.925 8.7V11.525L23.325 10.125L26.875 13.675C27.1583 13.9583 27.375 14.2792 27.525 14.6375C27.675 14.9958 27.75 15.375 27.75 15.775C27.75 16.175 27.675 16.5583 27.525 16.925C27.375 17.2917 27.1583 17.6167 26.875 17.9L24.75 15.775L23.35 17.175L22.3 16.125L17.125 21.3V23.4L11.825 28.7C11.725 28.8 11.6167 28.875 11.5 28.925C11.3833 28.975 11.2583 29 11.125 29V29M11.125 26.6L15.375 22.35V21.625H14.65L10.4 25.875L11.125 26.6V26.6M11.125 26.6L10.4 25.875V25.875L10.775 26.225L11.125 26.6V26.6V26.6M24.85 26.6V26.6L25.575 25.875V25.875L24.85 26.6V26.6" fill="var(--fill-0, #C68642)"/>
</g>
</svg>
