<svg preserveAspectRatio="none" width="100%" height="100%" overflow="visible" style="display: block;" viewBox="0 0 26 36" fill="none" xmlns="http://www.w3.org/2000/svg">
<g id="Overlay">
<rect width="26" height="36" rx="2" fill="var(--fill-0, #C68642)" fill-opacity="0.2"/>
<path id="Icon" d="M8 8H18V15.85C18 16.2333 17.9167 16.575 17.75 16.875C17.5833 17.175 17.35 17.4167 17.05 17.6L13.5 19.7L14.2 22H18L14.9 24.2L16.1 28L13 25.65L9.9 28L11.1 24.2L8 22H11.8L12.5 19.7L8.95 17.6C8.65 17.4167 8.41667 17.175 8.25 16.875C8.08333 16.575 8 16.2333 8 15.85V8V8M10 10V15.85V15.85V15.85L12 17.05V10H10V10M16 10H14V17.05L16 15.85V15.85V15.85V10V10M13 13.825V13.825V13.825V13.825V13.825V13.825V13.825M12 13.525V13.525V13.525V13.525V13.525V13.525V13.525V13.525M14 13.525V13.525V13.525V13.525V13.525V13.525V13.525V13.525" fill="var(--fill-0, #C68642)"/>
</g>
</svg>
